<svg width="37" height="36" viewBox="0 0 37 36" fill="none" xmlns="http://www.w3.org/2000/svg">
<circle cx="18.0551" cy="18" r="18" fill="#F0F4F5"/>
<path d="M18.0551 28C19.1551 28 20.0551 27.1 20.0551 26H16.0551C16.0551 27.1 16.9551 28 18.0551 28ZM24.0551 22V17C24.0551 13.93 22.4251 11.36 19.5551 10.68V10C19.5551 9.17 18.8851 8.5 18.0551 8.5C17.2251 8.5 16.5551 9.17 16.5551 10V10.68C13.6951 11.36 12.0551 13.92 12.0551 17V22L10.0551 24V25H26.0551V24L24.0551 22ZM22.0551 23H14.0551V17C14.0551 14.52 15.5651 12.5 18.0551 12.5C20.5451 12.5 22.0551 14.52 22.0551 17V23Z" fill="#205266"/>
</svg>
