<svg width="10" height="6" viewBox="0 0 10 6" fill="none" xmlns="http://www.w3.org/2000/svg">
<path d="M5.00003 5.99979C4.73484 5.99973 4.48052 5.89434 4.29303 5.70679L0.293031 1.70679C0.105559 1.51926 0.000244141 1.26495 0.000244141 0.999786C0.000244141 0.734622 0.105559 0.480314 0.293031 0.292786C0.480558 0.105315 0.734866 0 1.00003 0C1.26519 0 1.5195 0.105315 1.70703 0.292786L5.70703 4.29279C5.84684 4.43264 5.94205 4.6108 5.98061 4.80475C6.01918 4.99871 5.99938 5.19974 5.92371 5.38244C5.84804 5.56514 5.7199 5.7213 5.55549 5.83119C5.39108 5.94107 5.19778 5.99974 5.00003 5.99979Z" fill="#63D391"/>
<path d="M5.00003 5.99979C4.73484 5.99973 4.48052 5.89434 4.29303 5.70679C4.10556 5.51926 4.00024 5.26495 4.00024 4.99979C4.00024 4.73462 4.10556 4.48031 4.29303 4.29279L8.29303 0.292786C8.48056 0.105315 8.73487 0 9.00003 0C9.26519 0 9.5195 0.105315 9.70703 0.292786C9.8945 0.480314 9.99982 0.734622 9.99982 0.999786C9.99982 1.26495 9.8945 1.51926 9.70703 1.70679L5.70703 5.70679C5.51954 5.89434 5.26523 5.99973 5.00003 5.99979Z" fill="#63D391"/>
</svg>
