<svg width="29" height="29" viewBox="0 0 29 29" fill="none" xmlns="http://www.w3.org/2000/svg">
<g clip-path="url(#clip0_1_457)">
<g clip-path="url(#clip1_1_457)">
<path fill-rule="evenodd" clip-rule="evenodd" d="M3.83331 0.5C3.28103 0.5 2.83331 0.947715 2.83331 1.5V27.5C2.83331 28.0523 3.28103 28.5 3.83331 28.5H25.1666C25.7189 28.5 26.1666 28.0523 26.1666 27.5V5.16667L21.5 0.5H3.83331Z" fill="#E9F0FA"/>
<path fill-rule="evenodd" clip-rule="evenodd" d="M21.5 0.5V5.16667H26.1666L21.5 0.5Z" fill="#C2CDDE"/>
</g>
<rect x="1.66666" y="12.1667" width="25.6667" height="11.6667" rx="1" fill="#F14848"/>
<path d="M7.25746 21V15.1818H9.43928C9.88625 15.1818 10.2612 15.2652 10.5643 15.4318C10.8692 15.5985 11.0993 15.8277 11.2546 16.1193C11.4118 16.4091 11.4904 16.7386 11.4904 17.108C11.4904 17.4811 11.4118 17.8125 11.2546 18.1023C11.0974 18.392 10.8654 18.6203 10.5586 18.7869C10.2518 18.9517 9.87393 19.0341 9.42507 19.0341H7.97905V18.1676H9.28303C9.54439 18.1676 9.7584 18.1222 9.92507 18.0312C10.0917 17.9403 10.2148 17.8153 10.2944 17.6562C10.3758 17.4972 10.4165 17.3144 10.4165 17.108C10.4165 16.9015 10.3758 16.7197 10.2944 16.5625C10.2148 16.4053 10.0908 16.2831 9.92223 16.196C9.75556 16.107 9.5406 16.0625 9.27734 16.0625H8.31143V21H7.25746ZM14.3775 21H12.4059V15.1818H14.4173C14.9949 15.1818 15.4911 15.2983 15.9059 15.5312C16.3226 15.7623 16.6426 16.0947 16.8661 16.5284C17.0896 16.9621 17.2013 17.4811 17.2013 18.0852C17.2013 18.6913 17.0887 19.2121 16.8633 19.6477C16.6398 20.0833 16.3169 20.4176 15.8945 20.6506C15.4741 20.8835 14.9684 21 14.3775 21ZM13.4599 20.0881H14.3263C14.7317 20.0881 15.0697 20.0142 15.3406 19.8665C15.6114 19.7169 15.815 19.4943 15.9513 19.1989C16.0877 18.9015 16.1559 18.5303 16.1559 18.0852C16.1559 17.6402 16.0877 17.2708 15.9513 16.9773C15.815 16.6818 15.6133 16.4612 15.3462 16.3153C15.0811 16.1676 14.7515 16.0938 14.3576 16.0938H13.4599V20.0881ZM18.2028 21V15.1818H21.93V16.0653H19.2567V17.6449H21.6744V18.5284H19.2567V21H18.2028Z" fill="white"/>
</g>
<defs>
<clipPath id="clip0_1_457">
<rect width="28" height="28" fill="white" transform="translate(0.5 0.5)"/>
</clipPath>
<clipPath id="clip1_1_457">
<rect width="23.3333" height="28" fill="white" transform="translate(2.83331 0.5)"/>
</clipPath>
</defs>
</svg>
