<svg width="15" height="15" viewBox="0 0 15 15" fill="none" xmlns="http://www.w3.org/2000/svg">
<path d="M13.5 6.83334C13.3232 6.83334 13.1536 6.90358 13.0286 7.02861C12.9036 7.15363 12.8333 7.3232 12.8333 7.50001C12.8413 8.7487 12.4135 9.96107 11.6238 10.9283C10.834 11.8956 9.73168 12.5571 8.50664 12.7991C7.28159 13.041 6.01052 12.8482 4.91233 12.2539C3.81415 11.6595 2.9576 10.7008 2.49021 9.54284C2.02282 8.3849 1.97386 7.10022 2.35174 5.91006C2.72963 4.7199 3.51071 3.69877 4.56046 3.02253C5.61022 2.34629 6.86293 2.05729 8.10284 2.20528C9.34275 2.35328 10.4922 2.92902 11.3533 3.83334H9.75333C9.57652 3.83334 9.40695 3.90358 9.28193 4.02861C9.1569 4.15363 9.08666 4.3232 9.08666 4.50001C9.08666 4.67682 9.1569 4.84639 9.28193 4.97141C9.40695 5.09644 9.57652 5.16668 9.75333 5.16668H12.7733C12.9501 5.16668 13.1197 5.09644 13.2447 4.97141C13.3698 4.84639 13.44 4.67682 13.44 4.50001V1.50001C13.44 1.3232 13.3698 1.15363 13.2447 1.02861C13.1197 0.903581 12.9501 0.833343 12.7733 0.833343C12.5965 0.833343 12.427 0.903581 12.3019 1.02861C12.1769 1.15363 12.1067 1.3232 12.1067 1.50001V2.68001C10.9964 1.61872 9.55383 0.973312 8.02267 0.852896C6.49152 0.73248 4.96575 1.14444 3.70328 2.01914C2.4408 2.89383 1.51907 4.17761 1.09388 5.65347C0.668695 7.12933 0.766137 8.70673 1.36974 10.119C1.97333 11.5313 3.04607 12.6919 4.40659 13.4046C5.76713 14.1172 7.332 14.3383 8.83669 14.0303C10.3414 13.7224 11.6936 12.9043 12.6648 11.7145C13.6359 10.5246 14.1664 9.03589 14.1667 7.50001C14.1667 7.3232 14.0964 7.15363 13.9714 7.02861C13.8464 6.90358 13.6768 6.83334 13.5 6.83334Z" fill="#71839B"/>
</svg>
