<svg width="37" height="36" viewBox="0 0 37 36" fill="none" xmlns="http://www.w3.org/2000/svg">
<circle cx="18.0551" cy="18" r="18" fill="#F0F4F5"/>
<path d="M18.0551 12C19.1551 12 20.0551 12.9 20.0551 14C20.0551 15.1 19.1551 16 18.0551 16C16.9551 16 16.0551 15.1 16.0551 14C16.0551 12.9 16.9551 12 18.0551 12ZM18.0551 21C20.7551 21 23.8551 22.29 24.0551 23V24H12.0551V23.01C12.2551 22.29 15.3551 21 18.0551 21ZM18.0551 10C15.8451 10 14.0551 11.79 14.0551 14C14.0551 16.21 15.8451 18 18.0551 18C20.2651 18 22.0551 16.21 22.0551 14C22.0551 11.79 20.2651 10 18.0551 10ZM18.0551 19C15.3851 19 10.0551 20.34 10.0551 23V26H26.0551V23C26.0551 20.34 20.7251 19 18.0551 19Z" fill="#205266"/>
</svg>
